<svg width="35" height="26" viewBox="0 0 35 26" fill="none" xmlns="http://www.w3.org/2000/svg">
<path d="M19.79 13.57L19.2952 13.4984L19.2907 13.5291L19.2901 13.5601L19.79 13.57ZM19.79 13.57L19.2901 13.5602L19.2901 13.5603L19.2901 13.5606L19.2901 13.562L19.29 13.5671L19.2896 13.5868L19.2883 13.6618C19.2873 13.7268 19.286 13.8206 19.2847 13.9367C19.2821 14.1688 19.2797 14.4903 19.2807 14.8475C19.2826 15.5556 19.2974 16.4261 19.3521 17.0162L19.4925 18.5285L20.2779 17.2286C22.4176 13.6877 23.7207 9.70518 24.088 5.58439L24.0901 5.56085L24.09 5.53722C24.0849 4.62485 24.0009 3.94374 23.8089 3.47532C23.71 3.23411 23.5705 3.01935 23.3701 2.86535C23.1622 2.70573 22.926 2.64 22.69 2.64C22.4394 2.64 22.2396 2.7581 22.0993 2.88064C21.9589 3.00338 21.8406 3.1623 21.7397 3.32741C21.5372 3.65874 21.3503 4.10629 21.1778 4.60676C20.8304 5.61449 20.5063 6.94257 20.2296 8.25158C19.9519 9.5648 19.7184 10.8761 19.5545 11.858C19.4725 12.3492 19.4077 12.7587 19.3634 13.0456C19.3413 13.1891 19.3243 13.3019 19.3128 13.3791L19.2997 13.4674L19.2963 13.4903L19.2955 13.4962L19.2952 13.4978L19.2952 13.4982C19.2952 13.4983 19.2952 13.4984 19.79 13.57ZM20.2882 13.6777L20.2893 13.6109L20.3018 13.5267C20.3131 13.451 20.3299 13.3398 20.3518 13.1981C20.3955 12.9146 20.4596 12.5092 20.5408 12.0227C20.7034 11.0489 20.9343 9.7527 21.2079 8.45842C21.4825 7.15993 21.7965 5.88051 22.1232 4.93262C22.2877 4.45527 22.4468 4.08798 22.5929 3.84892C22.6565 3.74485 22.7076 3.68203 22.7425 3.64757C22.7504 3.65075 22.7559 3.65458 22.7609 3.6584C22.7801 3.67315 22.8288 3.72089 22.8836 3.85468C22.998 4.13376 23.0835 4.64597 23.0899 5.51924C22.786 8.89364 21.8306 12.1714 20.2825 15.1727C20.2815 15.0616 20.281 14.9519 20.2807 14.8448C20.2797 14.4933 20.282 14.1767 20.2846 13.9479C20.2859 13.8335 20.2872 13.7413 20.2882 13.6777ZM23.7 25.16V25.1598L23.6864 25.1602C22.4852 25.1929 21.2955 24.9184 20.23 24.3628C19.1645 23.8071 18.2584 22.9887 17.5976 21.9851L17.2716 21.4898L16.8385 21.8948C14.7015 23.8933 11.9147 25.0528 8.99103 25.16C6.38587 25.1579 4.44336 24.2424 3.26076 22.7362C2.07302 21.2235 1.59062 19.0369 2.0719 16.3796C2.43607 14.3916 3.43861 12.3776 4.50402 10.3982C4.6462 10.1341 4.78987 9.87 4.93323 9.60648C5.84474 7.93091 6.74393 6.27801 7.17092 4.77679L7.27503 4.41076L6.94997 4.2129C5.99283 3.63029 4.76695 3.11082 3.5777 3.05677C2.49684 3.00764 1.43457 3.34831 0.684969 4.35093L0.587082 4.2915C1.26974 2.1307 2.69735 0.84 4.63 0.84C5.1659 0.84 5.67481 0.919493 6.18536 1.02655C6.38039 1.06744 6.59014 1.11598 6.80377 1.16542C7.11524 1.2375 7.43498 1.31149 7.72944 1.3665C8.7615 1.55929 9.84978 1.60294 11.0597 0.950001H12.0983C11.6676 2.94503 11.0112 4.80345 10.2939 6.83424C10.2123 7.06518 10.1299 7.29834 10.047 7.53419C9.16595 10.0409 8.23538 12.8206 7.58815 16.3601L7.58807 16.3606C7.18899 18.5555 7.33917 20.2522 7.99212 21.4224C8.66652 22.631 9.82638 23.19 11.2 23.19H11.2314L11.2625 23.1861C13.2021 22.9418 14.9822 21.9871 16.2587 20.5065L16.4571 20.2764L16.3442 19.9943C15.3903 17.6097 14.91 15.0621 14.93 12.4939H14.93V12.49C14.93 9.517 15.6138 6.4797 16.8494 4.20355C18.0893 1.91955 19.8213 0.5 21.9 0.5C22.9761 0.5 23.8681 0.868947 24.5027 1.64621C25.149 2.43783 25.58 3.71645 25.58 5.63C25.58 7.5242 25.0021 9.98154 24.0319 12.4589C23.0638 14.931 21.7217 17.3803 20.2286 19.2589L20.0878 19.436L20.1279 19.6587C20.3139 20.69 20.8539 21.6241 21.6549 22.2997C22.4559 22.9754 23.4676 23.3504 24.5154 23.36V23.36H24.52C27.0232 23.36 29.0502 21.4886 30.4212 18.9811C31.8031 16.4537 32.6 13.1497 32.6 9.98C32.6 6.79944 31.9077 5.2229 31.2052 4.16577C31.0476 3.92864 30.8918 3.72103 30.7553 3.53914C30.7448 3.52515 30.7344 3.51132 30.7242 3.49763C30.5766 3.30086 30.4587 3.14074 30.3644 2.98376C30.1905 2.69426 30.1037 2.4284 30.147 2.03469L30.1479 2.02678L30.1485 2.01884C30.1792 1.62473 30.3642 1.25867 30.6634 1.00025C30.9625 0.741836 31.3516 0.611953 31.746 0.638842L31.763 0.64H31.78C32.2217 0.64 32.8816 0.906849 33.4594 2.12656C34.0443 3.36127 34.5 5.49987 34.5 9.04C34.5 13.507 33.3111 17.5617 31.3568 20.4846C29.4029 23.4071 26.7165 25.16 23.7 25.16Z" fill="#8844EE" stroke="#B07DFB"/>
</svg>
